#!OML:ASF H:\GeneralSubjects\Female5\Project 1\Capture day 1\Session 1\Female5.ASF
:FULLY-SPECIFIED
:DEGREES
805
root -36.548 16.075 -2.69987 -172.991 -16.5887 -180.889
lowerback 6.89225 0.701788 1.26827
upperback -10.2258 0.616888 1.48465
thorax -15.2013 -0.0324821 0.905381
lowerneck -15.7775 -4.50969 -4.47322
upperneck 32.2883 -8.40713 2.39885
head 13.9095 -4.68741 0.138538
rclavicle -3.37934e-015 -1.59028e-015
rhumerus -54.1953 13.8899 -80.4856
rradius 35.0002
rwrist -18.1024
rhand -28.5648 -23.1559
rfingers 7.12502
rthumb -1.93143 -53.1269
lclavicle -3.37934e-015 -1.59028e-015
lhumerus -44.0319 -0.272934 70.0908
lradius 45.9033
lwrist -0.0262987
lhand -29.2773 30.1105
lfingers 7.12502
lthumb -2.61947 60.0742
rfemur -10.6427 2.39916 23.4965
rtibia 24.1142
rfoot -25.0775 -24.8398
rtoes -21.2495
lfemur -8.86341 -20.7943 -27.214
ltibia 16.7985
lfoot 3.07424 -14.7103
ltoes -38.329
806
root -36.6244 16.0875 -2.68695 -172.903 -16.3841 -180.739
lowerback 6.79569 0.659148 1.26206
upperback -10.2763 0.535927 1.40645
thorax -15.1988 -0.0799687 0.839074
lowerneck -15.8659 -4.48264 -4.22543
upperneck 32.4328 -8.43404 2.27794
head 13.9738 -4.69188 0.0364019
rclavicle -6.75868e-015 -3.10104e-014
rhumerus -54.1811 13.3305 -80.1452
rradius 34.7818
rwrist -18.1865
rhand -28.3889 -22.5894
rfingers 7.12502
rthumb -1.76147 -52.5619
lclavicle -6.75868e-015 -3.10104e-014
lhumerus -43.5473 -0.659441 69.9319
lradius 47.0287
lwrist 0.322593
lhand -29.2198 30.1225
lfingers 7.12502
lthumb -2.56398 60.0869
rfemur -10.7463 1.80204 25.5683
rtibia 24.1118
rfoot -24.9963 -23.253
rtoes -24.0848
lfemur -8.84334 -20.897 -27.391
ltibia 16.6143
lfoot 2.74758 -14.8371
ltoes -38.6654
807
root -36.6984 16.0973 -2.67668 -172.83 -16.2059 -180.628
lowerback 6.68096 0.618358 1.28648
upperback -10.3154 0.46018 1.30649
thorax -15.1702 -0.129472 0.729629
lowerneck -15.9377 -4.44917 -4.00693
upperneck 32.5568 -8.45474 2.20072
head 14.0293 -4.69081 -0.0415248
rclavicle 3.66758e-014 -3.18055e-015
rhumerus -54.1919 12.8011 -79.8564
rradius 34.6347
rwrist -18.2163
rhand -28.4284 -22.502
rfingers 7.12502
rthumb -1.7997 -52.4741
lclavicle 3.66758e-014 -3.18055e-015
lhumerus -43.0603 -1.08328 69.8577
lradius 47.883
lwrist 0.49035
lhand -29.1865 30.1967
lfingers 7.12502
lthumb -2.5318 60.1615
rfemur -10.5958 1.44338 27.4643
rtibia 23.6837
rfoot -24.7843 -21.7886
rtoes -26.8036
lfemur -8.81376 -20.9743 -27.598
ltibia 16.4505
lfoot 2.52129 -14.8786
ltoes -39.0481
808
root -36.7708 16.1049 -2.66979 -172.777 -16.0156 -180.532
lowerback 6.5367 0.593624 1.34344
upperback -10.3409 0.410784 1.20379
thorax -15.1059 -0.170051 0.593142
lowerneck -15.9837 -4.40825 -3.84764
upperneck 32.652 -8.46487 2.18864
head 14.0731 -4.68313 -0.0802792
rclavicle 6.06293e-015 -7.95139e-016
rhumerus -54.1924 12.2793 -79.5416
rradius 34.4881
rwrist -18.2561
rhand -28.5253 -22.4337
rfingers 7.12502
rthumb -1.89321 -52.4051
lclavicle 6.06293e-015 -7.95139e-016
lhumerus -42.5756 -1.51479 69.8855
lradius 48.438
lwrist 0.505261
lhand -29.226 30.2286
lfingers 7.12502
lthumb -2.56999 60.1928
rfemur -10.206 1.46513 29.1773
rtibia 22.8426
rfoot -24.7466 -20.4024
rtoes -28.5015
lfemur -8.74359 -21.0106 -27.8113
ltibia 16.2645
lfoot 2.32436 -14.8845
ltoes -39.1343
809
root -36.8414 16.1105 -2.66667 -172.737 -15.7762 -180.445
lowerback 6.35226 0.59842 1.42188
upperback -10.3549 0.404691 1.10885
thorax -15.0017 -0.191951 0.444573
lowerneck -16.0037 -4.35179 -3.76577
upperneck 32.7249 -8.45617 2.26389
head 14.1098 -4.66501 -0.0666456
rclavicle 1.19271e-015 1.43125e-014
rhumerus -54.1844 11.7918 -79.2136
rradius 34.3306
rwrist -18.2871
rhand -28.6545 -22.3827
rfingers 7.12502
rthumb -2.01799 -52.3529
lclavicle 1.19271e-015 1.43125e-014
lhumerus -42.1048 -1.9465 70.0266
lradius 48.6899
lwrist 0.400806
lhand -28.9996 30.1033
lfingers 7.12502
lthumb -2.35136 60.0701
rfemur -9.59923 2.01084 30.6931
rtibia 21.6128
rfoot -25.2859 -18.7994
rtoes -27.4727
lfemur -8.60758 -21.0005 -28.0214
ltibia 16.0086
lfoot 2.09739 -14.9104
ltoes -38.7064
810
root -36.9099 16.1141 -2.66733 -172.704 -15.4544 -180.355
lowerback 6.11999 0.641754 1.52584
upperback -10.3596 0.453938 1.02433
thorax -14.8551 -0.189886 0.282897
lowerneck -16.0177 -4.28935 -3.72767
upperneck 32.7925 -8.43101 2.36094
head 14.1458 -4.64188 -0.0336589
rclavicle 4.28381e-014 1.03368e-014
rhumerus -54.1578 11.3573 -78.8988
rradius 34.1399
rwrist -18.2945
rhand -28.7649 -22.3253
rfingers 7.12502
rthumb -2.12462 -52.2945
lclavicle 4.28381e-014 1.03368e-014
lhumerus -41.668 -2.38537 70.278
lradius 48.655
lwrist 0.218694
lhand -28.6565 29.8967
lfingers 7.12502
lthumb -2.02001 59.8668
rfemur -8.78598 3.06154 31.9924
rtibia 19.9877
rfoot -26.4167 -17.0032
rtoes -22.7558
lfemur -8.38819 -20.9308 -28.2146
ltibia 15.6501
lfoot 1.78325 -14.9933
ltoes -37.6629
811
root -36.9759 16.1162 -2.67119 -172.66 -15.0327 -180.274
lowerback 5.83545 0.725002 1.64171
upperback -10.3595 0.55681 0.945505
thorax -14.6681 -0.163513 0.11174
lowerneck -16.032 -4.22559 -3.71455
upperneck 32.8608 -8.39287 2.45146
head 14.1826 -4.61678 0.00334058
rclavicle 6.06293e-015 5.56597e-015
rhumerus -54.0989 11.0044 -78.6289
rradius 33.8994
rwrist -18.2637
rhand -28.8191 -22.2295
rfingers 7.12502
rthumb -2.17699 -52.1982
lclavicle 6.06293e-015 5.56597e-015
lhumerus -41.2925 -2.8315 70.6276
lradius 48.378
lwrist 0.00195677
lhand -28.1186 29.5838
lfingers 7.12502
lthumb -1.50045 59.5583
rfemur -7.79859 4.53459 33.0482
rtibia 17.9899
rfoot -27.6416 -16.1352
rtoes -17.3266
lfemur -8.07565 -20.9029 -28.4099
ltibia 15.1935
lfoot 1.33727 -15.1951
ltoes -36.3345
812
root -37.0394 16.1175 -2.6774 -172.599 -14.5118 -180.2
lowerback 5.50389 0.841162 1.78257
upperback -10.3581 0.703999 0.866682
thorax -14.4483 -0.118997 -0.0797173
lowerneck -16.0524 -4.1606 -3.71046
upperneck 32.9372 -8.34181 2.51742
head 14.2229 -4.59046 0.0340539
rclavicle 3.12092e-014 3.18055e-014
rhumerus -53.9982 10.7597 -78.4376
rradius 33.6117
rwrist -18.198
rhand -28.8357 -22.0994
rfingers 7.12502
rthumb -2.19307 -52.0678
lclavicle 3.12092e-014 3.18055e-014
lhumerus -41.0103 -3.2857 71.0619
lradius 47.9124
lwrist -0.195039
lhand -27.648 29.3348
lfingers 7.12502
lthumb -1.04596 59.312
rfemur -6.73115 6.36785 33.8603
rtibia 15.8476
rfoot -29.119 -15.7041
rtoes -10.1552
lfemur -7.67679 -20.899 -28.5983
ltibia 14.6196
lfoot 0.874677 -15.4077
ltoes -35.1957
813
root -37.1007 16.1192 -2.68456 -172.513 -13.9025 -180.138
lowerback 5.14202 0.980963 1.97046
upperback -10.3602 0.883995 0.777311
thorax -14.2113 -0.064823 -0.312338
lowerneck -16.0866 -4.10473 -3.68941
upperneck 33.0276 -8.28371 2.50851
head 14.267 -4.56887 0.032587
rclavicle 2.41523e-014 -1.98785e-015
rhumerus -53.8424 10.602 -78.3296
rradius 33.2771
rwrist -18.0623
rhand -28.8458 -21.9564
rfingers 7.12502
rthumb -2.20277 -51.9248
lclavicle 2.41523e-014 -1.98785e-015
lhumerus -40.855 -3.7739 71.5733
lradius 47.3097
lwrist -0.310798
lhand -27.3316 29.1871
lfingers 7.12502
lthumb -0.740389 59.1655
rfemur -5.68062 8.42692 34.4452
rtibia 13.7709
rfoot -30.5483 -16.0344
rtoes -3.6576
lfemur -7.1861 -21.0284 -28.7998
ltibia 13.9237
lfoot 0.321713 -15.6884
ltoes -34.5829
814
root -37.16 16.1223 -2.69084 -172.395 -13.2244 -180.12
lowerback 4.77978 1.13308 2.18057
upperback -10.3694 1.07779 0.664664
thorax -13.9805 -0.00787287 -0.582495
lowerneck -16.1215 -4.05108 -3.69348
upperneck 33.1228 -8.22999 2.51662
head 14.3161 -4.55071 0.0410975
rclavicle -6.06293e-015 6.36111e-015
rhumerus -53.6297 10.5001 -78.2924
rradius 32.9146
rwrist -17.8114
rhand -28.8712 -21.8258
rfingers 7.12502
rthumb -2.22734 -51.7939
lclavicle -6.06293e-015 6.36111e-015
lhumerus -40.854 -4.32712 72.1638
lradius 46.6097
lwrist -0.306688
lhand -27.2229 29.0995
lfingers 7.12502
lthumb -0.635373 59.0783
rfemur -4.74587 10.5393 34.7887
rtibia 11.9607
rfoot -31.7317 -16.9584
rtoes 1.11556
lfemur -6.59582 -21.2214 -29.0503
ltibia 13.038
lfoot -0.382353 -15.989
ltoes -34.1912
815
root -37.2176 16.1271 -2.69472 -172.255 -12.4985 -180.156
lowerback 4.4545 1.28696 2.4029
upperback -10.3866 1.27199 0.529366
thorax -13.7804 0.0467677 -0.881979
lowerneck -16.1542 -4.00201 -3.74879
upperneck 33.2213 -8.19325 2.58518
head 14.3732 -4.5393 0.0792324
rclavicle 4.57205e-014 1.86858e-014
rhumerus -53.3819 10.4604 -78.3254
rradius 32.5746
rwrist -17.4856
rhand -28.9319 -21.7475
rfingers 7.12502
rthumb -2.2859 -51.715
lclavicle 4.57205e-014 1.86858e-014
lhumerus -41.0259 -4.94747 72.8407
lradius 45.8264
lwrist -0.198202
lhand -27.1917 28.9758
lfingers 7.12502
lthumb -0.605273 58.9547
rfemur -3.99226 12.5601 34.9151
rtibia 10.5464
rfoot -32.5906 -18.0029
rtoes 4.45283
lfemur -5.86671 -21.5363 -29.3803
ltibia 11.8891
lfoot -1.36255 -16.3662
ltoes -33.8289
816
root -37.2737 16.135 -2.6951 -172.099 -11.743 -180.237
lowerback 4.1926 1.43517 2.63373
upperback -10.4138 1.4583 0.377069
thorax -13.6305 0.0955324 -1.20206
lowerneck -16.1909 -3.94239 -3.79031
upperneck 33.3296 -8.14762 2.65039
head 14.4344 -4.52378 0.114847
rclavicle 3.07122e-014 1.07344e-014
rhumerus -53.1018 10.441 -78.3932
rradius 32.2774
rwrist -17.0983
rhand -29.0092 -21.7538
rfingers 7.12502
rthumb -2.36055 -51.7205
lclavicle 3.07122e-014 1.07344e-014
lhumerus -41.3771 -5.61402 73.6045
lradius 44.9631
lwrist -0.061052
lhand -27.0363 28.6655
lfingers 7.12502
lthumb -0.455128 58.6448
rfemur -3.43365 14.3866 34.865
rtibia 9.51093
rfoot -33.0946 -18.9286
rtoes 6.55796
lfemur -4.96049 -22.0129 -29.7936
ltibia 10.3882
lfoot -2.8109 -16.8145
ltoes -33.0001
